<?xml version="1.0" encoding="us-ascii" standalone="no"?><svg xmlns="http://www.w3.org/2000/svg" xmlns:xlink="http://www.w3.org/1999/xlink" contentStyleType="text/css" height="891px" preserveAspectRatio="none" style="width:915px;height:891px;background:#FFFFFF;" version="1.1" viewBox="0 0 915 891" width="915px" zoomAndPan="magnify"><defs/><g><!--cluster boundary0--><g id="cluster_boundary0"><rect fill="none" height="623" rx="2.5" ry="2.5" style="stroke:#444444;stroke-width:1.0;stroke-dasharray:7.0,7.0;" width="828" x="81.5" y="7"/><text fill="#444444" font-family="sans-serif" font-size="16" font-weight="bold" lengthAdjust="spacing" textLength="109" x="441" y="23.8516">&#1053;&#1072;&#1096; &#1087;&#1088;&#1086;&#1077;&#1082;&#1090;</text></g><!--cluster boundary1--><g id="cluster_boundary1"><rect fill="none" height="397" rx="2.5" ry="2.5" style="stroke:#444444;stroke-width:1.0;stroke-dasharray:7.0,7.0;" width="514" x="105.5" y="52"/><text fill="#444444" font-family="sans-serif" font-size="16" font-weight="bold" lengthAdjust="spacing" textLength="102" x="311.5" y="68.8516">&#1050;&#1086;&#1085;&#1090;&#1077;&#1082;&#1089;&#1090; 1</text></g><!--cluster boundary2--><g id="cluster_boundary2"><rect fill="none" height="270" rx="2.5" ry="2.5" style="stroke:#444444;stroke-width:1.0;stroke-dasharray:7.0,7.0;" width="194" x="643.5" y="336"/><text fill="#444444" font-family="sans-serif" font-size="16" font-weight="bold" lengthAdjust="spacing" textLength="102" x="689.5" y="352.8516">&#1050;&#1086;&#1085;&#1090;&#1077;&#1082;&#1089;&#1090; 2</text></g><!--cluster boundary3--><g id="cluster_boundary3"><rect fill="none" height="113" rx="2.5" ry="2.5" style="stroke:#444444;stroke-width:1.0;stroke-dasharray:7.0,7.0;" width="444" x="118.5" y="493"/><text fill="#444444" font-family="sans-serif" font-size="16" font-weight="bold" lengthAdjust="spacing" textLength="189" x="246" y="509.8516">&#1050;&#1086;&#1085;&#1090;&#1077;&#1082;&#1089;&#1090; &#1040;&#1076;&#1072;&#1087;&#1090;&#1077;&#1088;&#1086;&#1074;</text></g><!--entity service1--><g id="elem_service1"><rect fill="#438DD5" height="38.625" rx="2.5" ry="2.5" style="stroke:#3C7FC0;stroke-width:0.5;" width="161" x="273" y="110"/><text fill="#FFFFFF" font-family="sans-serif" font-size="16" font-weight="bold" lengthAdjust="spacing" textLength="123" x="283" y="134.8516">&#1052;&#1080;&#1082;&#1088;&#1086;&#1089;&#1077;&#1088;&#1074;&#1080;&#1089;</text><text fill="#FFFFFF" font-family="sans-serif" font-size="16" font-weight="bold" lengthAdjust="spacing" textLength="6" x="406" y="134.8516">&#160;</text><text fill="#FFFFFF" font-family="sans-serif" font-size="16" font-weight="bold" lengthAdjust="spacing" textLength="12" x="412" y="134.8516">A</text></g><!--entity service2--><g id="elem_service2"><rect fill="#438DD5" height="38.625" rx="2.5" ry="2.5" style="stroke:#3C7FC0;stroke-width:0.5;" width="161" x="122" y="230"/><text fill="#FFFFFF" font-family="sans-serif" font-size="16" font-weight="bold" lengthAdjust="spacing" textLength="123" x="132" y="254.8516">&#1052;&#1080;&#1082;&#1088;&#1086;&#1089;&#1077;&#1088;&#1074;&#1080;&#1089;</text><text fill="#FFFFFF" font-family="sans-serif" font-size="16" font-weight="bold" lengthAdjust="spacing" textLength="6" x="255" y="254.8516">&#160;</text><text fill="#FFFFFF" font-family="sans-serif" font-size="16" font-weight="bold" lengthAdjust="spacing" textLength="12" x="261" y="254.8516">B</text></g><!--entity service3--><g id="elem_service3"><rect fill="#438DD5" height="38.625" rx="2.5" ry="2.5" style="stroke:#3C7FC0;stroke-width:0.5;" width="161" x="260" y="394"/><text fill="#FFFFFF" font-family="sans-serif" font-size="16" font-weight="bold" lengthAdjust="spacing" textLength="123" x="270" y="418.8516">&#1052;&#1080;&#1082;&#1088;&#1086;&#1089;&#1077;&#1088;&#1074;&#1080;&#1089;</text><text fill="#FFFFFF" font-family="sans-serif" font-size="16" font-weight="bold" lengthAdjust="spacing" textLength="6" x="393" y="418.8516">&#160;</text><text fill="#FFFFFF" font-family="sans-serif" font-size="16" font-weight="bold" lengthAdjust="spacing" textLength="12" x="399" y="418.8516">C</text></g><!--entity service_a12--><g id="elem_service_a12"><rect fill="#438DD5" height="57.25" rx="2.5" ry="2.5" style="stroke:#3C7FC0;stroke-width:0.5;" width="213" x="391" y="221"/><text fill="#FFFFFF" font-family="sans-serif" font-size="16" font-weight="bold" lengthAdjust="spacing" textLength="77" x="401" y="245.8516">&#1040;&#1076;&#1072;&#1087;&#1090;&#1077;&#1088;</text><text fill="#FFFFFF" font-family="sans-serif" font-size="16" font-weight="bold" lengthAdjust="spacing" textLength="6" x="478" y="245.8516">&#160;</text><text fill="#FFFFFF" font-family="sans-serif" font-size="16" font-weight="bold" lengthAdjust="spacing" textLength="11" x="484" y="245.8516">&#1082;</text><text fill="#FFFFFF" font-family="sans-serif" font-size="16" font-weight="bold" lengthAdjust="spacing" textLength="6" x="495" y="245.8516">&#160;</text><text fill="#FFFFFF" font-family="sans-serif" font-size="16" font-weight="bold" lengthAdjust="spacing" textLength="93" x="501" y="245.8516">&#1082;&#1086;&#1085;&#1090;&#1077;&#1082;&#1089;&#1090;&#1091;</text><text fill="#FFFFFF" font-family="sans-serif" font-size="16" font-weight="bold" lengthAdjust="spacing" textLength="11" x="492" y="264.4766">2</text></g><!--entity service4--><g id="elem_service4"><rect fill="#438DD5" height="38.625" rx="2.5" ry="2.5" style="stroke:#3C7FC0;stroke-width:0.5;" width="161" x="660" y="394"/><text fill="#FFFFFF" font-family="sans-serif" font-size="16" font-weight="bold" lengthAdjust="spacing" textLength="123" x="670" y="418.8516">&#1052;&#1080;&#1082;&#1088;&#1086;&#1089;&#1077;&#1088;&#1074;&#1080;&#1089;</text><text fill="#FFFFFF" font-family="sans-serif" font-size="16" font-weight="bold" lengthAdjust="spacing" textLength="6" x="793" y="418.8516">&#160;</text><text fill="#FFFFFF" font-family="sans-serif" font-size="16" font-weight="bold" lengthAdjust="spacing" textLength="12" x="799" y="418.8516">X</text></g><!--entity service5--><g id="elem_service5"><rect fill="#438DD5" height="38.625" rx="2.5" ry="2.5" style="stroke:#3C7FC0;stroke-width:0.5;" width="161" x="660" y="551"/><text fill="#FFFFFF" font-family="sans-serif" font-size="16" font-weight="bold" lengthAdjust="spacing" textLength="123" x="670" y="575.8516">&#1052;&#1080;&#1082;&#1088;&#1086;&#1089;&#1077;&#1088;&#1074;&#1080;&#1089;</text><text fill="#FFFFFF" font-family="sans-serif" font-size="16" font-weight="bold" lengthAdjust="spacing" textLength="6" x="793" y="575.8516">&#160;</text><text fill="#FFFFFF" font-family="sans-serif" font-size="16" font-weight="bold" lengthAdjust="spacing" textLength="12" x="799" y="575.8516">Y</text></g><!--entity service_a1--><g id="elem_service_a1"><rect fill="#438DD5" height="38.625" rx="2.5" ry="2.5" style="stroke:#3C7FC0;stroke-width:0.5;" width="114" x="432.5" y="551"/><text fill="#FFFFFF" font-family="sans-serif" font-size="16" font-weight="bold" lengthAdjust="spacing" textLength="77" x="442.5" y="575.8516">&#1040;&#1076;&#1072;&#1087;&#1090;&#1077;&#1088;</text><text fill="#FFFFFF" font-family="sans-serif" font-size="16" font-weight="bold" lengthAdjust="spacing" textLength="6" x="519.5" y="575.8516">&#160;</text><text fill="#FFFFFF" font-family="sans-serif" font-size="16" font-weight="bold" lengthAdjust="spacing" textLength="11" x="525.5" y="575.8516">1</text></g><!--entity service_a2--><g id="elem_service_a2"><rect fill="#438DD5" height="38.625" rx="2.5" ry="2.5" style="stroke:#3C7FC0;stroke-width:0.5;" width="114" x="134.5" y="551"/><text fill="#FFFFFF" font-family="sans-serif" font-size="16" font-weight="bold" lengthAdjust="spacing" textLength="77" x="144.5" y="575.8516">&#1040;&#1076;&#1072;&#1087;&#1090;&#1077;&#1088;</text><text fill="#FFFFFF" font-family="sans-serif" font-size="16" font-weight="bold" lengthAdjust="spacing" textLength="6" x="221.5" y="575.8516">&#160;</text><text fill="#FFFFFF" font-family="sans-serif" font-size="16" font-weight="bold" lengthAdjust="spacing" textLength="11" x="227.5" y="575.8516">2</text></g><!--entity service_a3--><g id="elem_service_a3"><rect fill="#438DD5" height="38.625" rx="2.5" ry="2.5" style="stroke:#3C7FC0;stroke-width:0.5;" width="114" x="283.5" y="551"/><text fill="#FFFFFF" font-family="sans-serif" font-size="16" font-weight="bold" lengthAdjust="spacing" textLength="77" x="293.5" y="575.8516">&#1040;&#1076;&#1072;&#1087;&#1090;&#1077;&#1088;</text><text fill="#FFFFFF" font-family="sans-serif" font-size="16" font-weight="bold" lengthAdjust="spacing" textLength="6" x="370.5" y="575.8516">&#160;</text><text fill="#FFFFFF" font-family="sans-serif" font-size="16" font-weight="bold" lengthAdjust="spacing" textLength="11" x="376.5" y="575.8516">3</text></g><!--entity ext--><g id="elem_ext"><rect fill="#999999" height="38.625" rx="2.5" ry="2.5" style="stroke:#8A8A8A;stroke-width:0.5;" width="182" x="475.5" y="688"/><text fill="#FFFFFF" font-family="sans-serif" font-size="16" font-weight="bold" lengthAdjust="spacing" textLength="82" x="485.5" y="712.8516">&#1042;&#1085;&#1077;&#1096;&#1085;&#1103;&#1103;</text><text fill="#FFFFFF" font-family="sans-serif" font-size="16" font-weight="bold" lengthAdjust="spacing" textLength="6" x="567.5" y="712.8516">&#160;</text><text fill="#FFFFFF" font-family="sans-serif" font-size="16" font-weight="bold" lengthAdjust="spacing" textLength="74" x="573.5" y="712.8516">&#1089;&#1080;&#1089;&#1090;&#1077;&#1084;&#1072;</text></g><!--entity ext2--><g id="elem_ext2"><rect fill="#999999" height="38.625" rx="2.5" ry="2.5" style="stroke:#8A8A8A;stroke-width:0.5;" width="199" x="7" y="688"/><text fill="#FFFFFF" font-family="sans-serif" font-size="16" font-weight="bold" lengthAdjust="spacing" textLength="82" x="17" y="712.8516">&#1042;&#1085;&#1077;&#1096;&#1085;&#1103;&#1103;</text><text fill="#FFFFFF" font-family="sans-serif" font-size="16" font-weight="bold" lengthAdjust="spacing" textLength="6" x="99" y="712.8516">&#160;</text><text fill="#FFFFFF" font-family="sans-serif" font-size="16" font-weight="bold" lengthAdjust="spacing" textLength="74" x="105" y="712.8516">&#1089;&#1080;&#1089;&#1090;&#1077;&#1084;&#1072;</text><text fill="#FFFFFF" font-family="sans-serif" font-size="16" font-weight="bold" lengthAdjust="spacing" textLength="6" x="179" y="712.8516">&#160;</text><text fill="#FFFFFF" font-family="sans-serif" font-size="16" font-weight="bold" lengthAdjust="spacing" textLength="11" x="185" y="712.8516">2</text></g><!--entity ext3--><g id="elem_ext3"><rect fill="#999999" height="38.625" rx="2.5" ry="2.5" style="stroke:#8A8A8A;stroke-width:0.5;" width="199" x="241" y="688"/><text fill="#FFFFFF" font-family="sans-serif" font-size="16" font-weight="bold" lengthAdjust="spacing" textLength="82" x="251" y="712.8516">&#1042;&#1085;&#1077;&#1096;&#1085;&#1103;&#1103;</text><text fill="#FFFFFF" font-family="sans-serif" font-size="16" font-weight="bold" lengthAdjust="spacing" textLength="6" x="333" y="712.8516">&#160;</text><text fill="#FFFFFF" font-family="sans-serif" font-size="16" font-weight="bold" lengthAdjust="spacing" textLength="74" x="339" y="712.8516">&#1089;&#1080;&#1089;&#1090;&#1077;&#1084;&#1072;</text><text fill="#FFFFFF" font-family="sans-serif" font-size="16" font-weight="bold" lengthAdjust="spacing" textLength="6" x="413" y="712.8516">&#160;</text><text fill="#FFFFFF" font-family="sans-serif" font-size="16" font-weight="bold" lengthAdjust="spacing" textLength="11" x="419" y="712.8516">3</text></g><!--link service1 to service2--><g id="link_service1_service2"><path d="M329.57,149.2 C303.4,169.65 261.38,202.49 232.89,224.75 " fill="none" id="service1-to-service2" style="stroke:#666666;stroke-width:1.0;"/><polygon fill="#666666" points="226.31,229.89,234.4594,227.3235,230.7625,222.5978,226.31,229.89" style="stroke:#666666;stroke-width:1.0;"/><text fill="#666666" font-family="sans-serif" font-size="0" lengthAdjust="spacing" textLength="0" x="287.5" y="180">.</text></g><!--link service1 to service3--><g id="link_service1_service3"><path d="M352.65,149 C350.41,197.6 344.35,329.04 341.73,385.8 " fill="none" id="service1-to-service3" style="stroke:#666666;stroke-width:1.0;"/><polygon fill="#666666" points="341.36,393.93,344.7285,386.078,338.7349,385.7993,341.36,393.93" style="stroke:#666666;stroke-width:1.0;"/><text fill="#666666" font-family="sans-serif" font-size="0" lengthAdjust="spacing" textLength="0" x="349.5" y="244.5">.</text></g><!--link service2 to service3--><g id="link_service2_service3"><path d="M218.33,269.08 C243.22,298.3 291.53,355.01 319.36,387.69 " fill="none" id="service2-to-service3" style="stroke:#666666;stroke-width:1.0;"/><polygon fill="#666666" points="324.64,393.88,321.7441,385.8417,317.1727,389.7279,324.64,393.88" style="stroke:#666666;stroke-width:1.0;"/><text fill="#666666" font-family="sans-serif" font-size="0" lengthAdjust="spacing" textLength="0" x="259.5" y="309">.</text></g><!--link service1 to service_a12--><g id="link_service1_service_a12"><path d="M376.32,149.2 C398.03,166.99 431.18,194.15 457.32,215.57 " fill="none" id="service1-to-service_a12" style="stroke:#666666;stroke-width:1.0;"/><polygon fill="#666666" points="463.8,220.88,459.5155,213.4879,455.7114,218.1278,463.8,220.88" style="stroke:#666666;stroke-width:1.0;"/><text fill="#666666" font-family="sans-serif" font-size="0" lengthAdjust="spacing" textLength="0" x="426.5" y="180">.</text></g><!--link service2 to service_a12--><g id="link_service2_service_a12"><path d="M229.17,229.97 C250.71,215.48 282.45,196.91 313.5,189 C359.63,177.25 411.01,196.99 447.72,216.99 " fill="none" id="service2-to-service_a12" style="stroke:#666666;stroke-width:1.0;"/><polygon fill="#666666" points="454.86,220.99,449.3474,214.4623,446.4145,219.6966,454.86,220.99" style="stroke:#666666;stroke-width:1.0;"/><text fill="#666666" font-family="sans-serif" font-size="0" lengthAdjust="spacing" textLength="0" x="314.5" y="180">.</text></g><!--link service_a12 to service5--><g id="link_service_a12_service5"><path d="M604.18,260.36 C693,271.04 809.48,291.64 838.5,328 C874.27,372.81 858.61,403.31 838.5,457 C825.07,492.85 794.49,524.8 771.03,545.41 " fill="none" id="service_a12-to-service5" style="stroke:#666666;stroke-width:1.0;"/><polygon fill="#666666" points="764.93,550.66,772.9502,547.7143,769.0357,543.1671,764.93,550.66" style="stroke:#666666;stroke-width:1.0;"/><text fill="#666666" font-family="sans-serif" font-size="0" lengthAdjust="spacing" textLength="0" x="860.5" y="408.5">.</text></g><!--link service_a12 to service4--><g id="link_service_a12_service4"><path d="M541.85,278.02 C565.12,292.63 594.02,311.02 619.5,328 C649.71,348.13 683.54,371.86 707.73,389.04 " fill="none" id="service_a12-to-service4" style="stroke:#666666;stroke-width:1.0;"/><polygon fill="#666666" points="714.29,393.7,709.5092,386.6188,706.0319,391.5084,714.29,393.7" style="stroke:#666666;stroke-width:1.0;"/><text fill="#666666" font-family="sans-serif" font-size="0" lengthAdjust="spacing" textLength="0" x="606.5" y="309">.</text></g><!--link service4 to service5--><g id="link_service4_service5"><path d="M740.5,433.2 C740.5,460.43 740.5,511.16 740.5,542.46 " fill="none" id="service4-to-service5" style="stroke:#666666;stroke-width:1.0;"/><polygon fill="#666666" points="740.5,550.74,743.5,542.74,737.5,542.74,740.5,550.74" style="stroke:#666666;stroke-width:1.0;"/><text fill="#666666" font-family="sans-serif" font-size="0" lengthAdjust="spacing" textLength="0" x="741.5" y="466">.</text></g><!--link service3 to service_a1--><g id="link_service3_service_a1"><path d="M361.39,433.13 C376.73,447.05 397.88,466.74 415.5,485 C434.15,504.32 454.15,527.31 468.65,544.43 " fill="none" id="service3-to-service_a1" style="stroke:#666666;stroke-width:1.0;"/><polygon fill="#666666" points="474.12,550.91,471.2553,542.8606,466.6689,546.729,474.12,550.91" style="stroke:#666666;stroke-width:1.0;"/><text fill="#666666" font-family="sans-serif" font-size="0" lengthAdjust="spacing" textLength="0" x="406.5" y="466">.</text></g><!--link service3 to service_a2--><g id="link_service3_service_a2"><path d="M319.96,433.21 C304.85,447.16 284,466.87 266.5,485 C247.74,504.44 227.46,527.41 212.72,544.5 " fill="none" id="service3-to-service_a2" style="stroke:#666666;stroke-width:1.0;"/><polygon fill="#666666" points="207.16,550.97,214.6481,546.8556,210.0963,542.9464,207.16,550.97" style="stroke:#666666;stroke-width:1.0;"/><text fill="#666666" font-family="sans-serif" font-size="0" lengthAdjust="spacing" textLength="0" x="286.5" y="466">.</text></g><!--link service3 to service_a3--><g id="link_service3_service_a3"><path d="M340.5,433.2 C340.5,460.43 340.5,511.16 340.5,542.46 " fill="none" id="service3-to-service_a3" style="stroke:#666666;stroke-width:1.0;"/><polygon fill="#666666" points="340.5,550.74,343.5,542.74,337.5,542.74,340.5,550.74" style="stroke:#666666;stroke-width:1.0;"/><text fill="#666666" font-family="sans-serif" font-size="0" lengthAdjust="spacing" textLength="0" x="341.5" y="466">.</text></g><!--link service_a1 to ext--><g id="link_service_a1_ext"><path d="M500.21,590.27 C513.65,613.85 536.79,654.4 551.86,680.83 " fill="none" id="service_a1-to-ext" style="stroke:#666666;stroke-width:1.0;"/><polygon fill="#666666" points="555.88,687.89,554.5119,679.4562,549.3037,682.4354,555.88,687.89" style="stroke:#666666;stroke-width:1.0;"/><text fill="#666666" font-family="sans-serif" font-size="0" lengthAdjust="spacing" textLength="0" x="537.5" y="647">.</text></g><!--link service_a2 to ext2--><g id="link_service_a2_ext2"><path d="M179.68,590.27 C164.84,613.85 139.3,654.4 122.66,680.83 " fill="none" id="service_a2-to-ext2" style="stroke:#666666;stroke-width:1.0;"/><polygon fill="#666666" points="118.22,687.89,125.0177,682.714,119.9382,679.5205,118.22,687.89" style="stroke:#666666;stroke-width:1.0;"/><text fill="#666666" font-family="sans-serif" font-size="0" lengthAdjust="spacing" textLength="0" x="145.5" y="647">.</text></g><!--link service_a3 to ext3--><g id="link_service_a3_ext3"><path d="M340.5,590.27 C340.5,613.54 340.5,653.37 340.5,679.81 " fill="none" id="service_a3-to-ext3" style="stroke:#666666;stroke-width:1.0;"/><polygon fill="#666666" points="340.5,687.89,343.5,679.89,337.5,679.89,340.5,687.89" style="stroke:#666666;stroke-width:1.0;"/><text fill="#666666" font-family="sans-serif" font-size="0" lengthAdjust="spacing" textLength="0" x="341.5" y="647">.</text></g><text fill="#000000" font-family="sans-serif" font-size="14" font-weight="bold" lengthAdjust="spacing" textLength="59" x="752.5" y="763.6201">Legend</text><text fill="#FFFFFF" font-family="sans-serif" font-size="14" lengthAdjust="spacing" textLength="4" x="811.5" y="763.6201">&#160;</text><rect fill="#08427B" height="16.2969" style="stroke:none;stroke-width:1.0;" width="132" x="752.5" y="766.9219"/><text fill="#FFFFFF" font-family="sans-serif" font-size="14" lengthAdjust="spacing" textLength="49" x="756.5" y="779.917">person</text><rect fill="#1168BD" height="16.2969" style="stroke:none;stroke-width:1.0;" width="132" x="752.5" y="783.2188"/><text fill="#FFFFFF" font-family="sans-serif" font-size="14" lengthAdjust="spacing" textLength="50" x="756.5" y="796.2139">system</text><rect fill="#438DD5" height="16.2969" style="stroke:none;stroke-width:1.0;" width="132" x="752.5" y="799.5156"/><text fill="#FFFFFF" font-family="sans-serif" font-size="14" lengthAdjust="spacing" textLength="65" x="756.5" y="812.5107">container</text><rect fill="#686868" height="16.2969" style="stroke:none;stroke-width:1.0;" width="132" x="752.5" y="815.8125"/><text fill="#FFFFFF" font-family="sans-serif" font-size="14" lengthAdjust="spacing" textLength="108" x="756.5" y="828.8076">external person</text><rect fill="#999999" height="16.2969" style="stroke:none;stroke-width:1.0;" width="132" x="752.5" y="832.1094"/><text fill="#FFFFFF" font-family="sans-serif" font-size="14" lengthAdjust="spacing" textLength="109" x="756.5" y="845.1045">external system</text><rect fill="#B3B3B3" height="16.2969" style="stroke:none;stroke-width:1.0;" width="132" x="752.5" y="848.4063"/><text fill="#FFFFFF" font-family="sans-serif" font-size="14" lengthAdjust="spacing" textLength="124" x="756.5" y="861.4014">external container</text><line style="stroke:#FFFFFF;stroke-width:1.0;" x1="752.5" x2="884.5" y1="750.625" y2="750.625"/><line style="stroke:#FFFFFF;stroke-width:1.0;" x1="752.5" x2="884.5" y1="766.9219" y2="766.9219"/><line style="stroke:#FFFFFF;stroke-width:1.0;" x1="752.5" x2="884.5" y1="783.2188" y2="783.2188"/><line style="stroke:#FFFFFF;stroke-width:1.0;" x1="752.5" x2="884.5" y1="799.5156" y2="799.5156"/><line style="stroke:#FFFFFF;stroke-width:1.0;" x1="752.5" x2="884.5" y1="815.8125" y2="815.8125"/><line style="stroke:#FFFFFF;stroke-width:1.0;" x1="752.5" x2="884.5" y1="832.1094" y2="832.1094"/><line style="stroke:#FFFFFF;stroke-width:1.0;" x1="752.5" x2="884.5" y1="848.4063" y2="848.4063"/><line style="stroke:#FFFFFF;stroke-width:1.0;" x1="752.5" x2="884.5" y1="864.7031" y2="864.7031"/><line style="stroke:#FFFFFF;stroke-width:1.0;" x1="752.5" x2="752.5" y1="750.625" y2="864.7031"/><line style="stroke:#FFFFFF;stroke-width:1.0;" x1="884.5" x2="884.5" y1="750.625" y2="864.7031"/><!--SRC=[ZPJFJi904CRlVOgLKqc4oYvUl04IDS4_GOXoQafff4aff6mLOamKBzmm7es-0o6I42Bw2hjlvBIWjBH0DqtQx3U_sPbl9ztHJTMmQnggKzfg7qYIfTmbRtHQjwjsMxFKfaaraoRLPaDg6Of9xOQHQDEQeLUbN3fnuMoLJmjIGsbJpO8jEGU4efkQbMn1h538LCxB9Vdgf7Gi5_97-RD3CIu8brq8RyZv3XMr3jr5CVRAPcpC-sp61to0-1ERy2VUOsFsnOQn-0g0jn481nYobI702DccRTOKgojM5nzx3lV1XhoFs0z_PDyGFUMzMFnU4D1Y1Q2K0xr1xCpDFdLEGIc7GIlhtouHtBxLLSr5tza483WCIXp3U-GKYZ9Gu5OUh-UpKNYodiz5uMKbvPRmmZxP41phEGaGcyBZzuC_kxVqb-XXWvqup4uSoSxq-dQkexIplvwlHAoUX5NlzmV4KQHsmDsWkQbezn9oBJWQIO8ayJKFxHSrmpF2dc64m52D13IygZcYN0oYYncRqyi071xWdqpFlMwGqyi2F9FaPxqYyHuTIErLyKQL15Ex2UT_oTM2iIk4TKfSPP7j5m00]--></g></svg>