<?xml version="1.0" encoding="us-ascii" standalone="no"?><svg xmlns="http://www.w3.org/2000/svg" xmlns:xlink="http://www.w3.org/1999/xlink" contentStyleType="text/css" height="675px" preserveAspectRatio="none" style="width:1542px;height:675px;background:#FFFFFF;" version="1.1" viewBox="0 0 1542 675" width="1542px" zoomAndPan="magnify"><defs/><g><!--cluster project--><g id="cluster_project"><rect fill="none" height="503.5" rx="2.5" ry="2.5" style="stroke:#444444;stroke-width:1.0;stroke-dasharray:7.0,7.0;" width="685" x="7" y="7"/><text fill="#444444" font-family="sans-serif" font-size="16" font-weight="bold" lengthAdjust="spacing" textLength="104" x="297.5" y="23.8516">Our system</text></g><!--entity bff--><g id="elem_bff"><rect fill="#438DD5" height="38.625" rx="2.5" ry="2.5" style="stroke:#3C7FC0;stroke-width:0.5;" width="45" x="302.5" y="44"/><text fill="#FFFFFF" font-family="sans-serif" font-size="16" font-weight="bold" lengthAdjust="spacing" textLength="25" x="312.5" y="68.8516">bff</text></g><!--entity camunda--><g id="elem_camunda"><rect fill="#438DD5" height="38.625" rx="2.5" ry="2.5" style="stroke:#3C7FC0;stroke-width:0.5;" width="99" x="342.5" y="155"/><text fill="#FFFFFF" font-family="sans-serif" font-size="16" font-weight="bold" lengthAdjust="spacing" textLength="79" x="352.5" y="179.8516">camunda</text></g><!--entity goods_acl--><g id="elem_goods_acl"><rect fill="#6F9355" height="38.625" rx="2.5" ry="2.5" style="stroke:#3C7FC0;stroke-width:0.5;" width="104" x="572" y="155"/><text fill="#FFFFFF" font-family="sans-serif" font-size="16" font-weight="bold" lengthAdjust="spacing" textLength="54" x="582" y="179.8516">goods</text><text fill="#FFFFFF" font-family="sans-serif" font-size="16" font-weight="bold" lengthAdjust="spacing" textLength="6" x="636" y="179.8516">&#160;</text><text fill="#FFFFFF" font-family="sans-serif" font-size="16" font-weight="bold" lengthAdjust="spacing" textLength="24" x="642" y="179.8516">acl</text></g><!--entity invoice_acl--><g id="elem_invoice_acl"><rect fill="#6F9355" height="38.625" rx="2.5" ry="2.5" style="stroke:#3C7FC0;stroke-width:0.5;" width="111" x="429.5" y="295"/><text fill="#FFFFFF" font-family="sans-serif" font-size="16" font-weight="bold" lengthAdjust="spacing" textLength="61" x="439.5" y="319.8516">invoice</text><text fill="#FFFFFF" font-family="sans-serif" font-size="16" font-weight="bold" lengthAdjust="spacing" textLength="6" x="500.5" y="319.8516">&#160;</text><text fill="#FFFFFF" font-family="sans-serif" font-size="16" font-weight="bold" lengthAdjust="spacing" textLength="24" x="506.5" y="319.8516">acl</text></g><!--entity invoice_repository--><g id="elem_invoice_repository"><rect fill="#438DD5" height="38.625" rx="2.5" ry="2.5" style="stroke:#3C7FC0;stroke-width:0.5;" width="179" x="215.5" y="295"/><text fill="#FFFFFF" font-family="sans-serif" font-size="16" font-weight="bold" lengthAdjust="spacing" textLength="61" x="225.5" y="319.8516">invoice</text><text fill="#FFFFFF" font-family="sans-serif" font-size="16" font-weight="bold" lengthAdjust="spacing" textLength="6" x="286.5" y="319.8516">&#160;</text><text fill="#FFFFFF" font-family="sans-serif" font-size="16" font-weight="bold" lengthAdjust="spacing" textLength="92" x="292.5" y="319.8516">repository</text></g><!--entity invoice_repository_db--><g id="elem_invoice_repository_db"><path d="M282.5,456.5 C282.5,446.5 305,446.5 305,446.5 C305,446.5 327.5,446.5 327.5,456.5 L327.5,484.125 C327.5,494.125 305,494.125 305,494.125 C305,494.125 282.5,494.125 282.5,484.125 L282.5,456.5 " fill="#438DD5" style="stroke:#3C7FC0;stroke-width:0.5;"/><path d="M282.5,456.5 C282.5,466.5 305,466.5 305,466.5 C305,466.5 327.5,466.5 327.5,456.5 " fill="none" style="stroke:#3C7FC0;stroke-width:0.5;"/><text fill="#FFFFFF" font-family="sans-serif" font-size="16" font-weight="bold" lengthAdjust="spacing" textLength="25" x="292.5" y="485.3516">DB</text></g><!--entity stock_acl--><g id="elem_stock_acl"><rect fill="#6F9355" height="38.625" rx="2.5" ry="2.5" style="stroke:#3C7FC0;stroke-width:0.5;" width="100" x="576" y="295"/><text fill="#FFFFFF" font-family="sans-serif" font-size="16" font-weight="bold" lengthAdjust="spacing" textLength="50" x="586" y="319.8516">stock</text><text fill="#FFFFFF" font-family="sans-serif" font-size="16" font-weight="bold" lengthAdjust="spacing" textLength="6" x="636" y="319.8516">&#160;</text><text fill="#FFFFFF" font-family="sans-serif" font-size="16" font-weight="bold" lengthAdjust="spacing" textLength="24" x="642" y="319.8516">acl</text></g><!--entity task_repository--><g id="elem_task_repository"><rect fill="#438DD5" height="38.625" rx="2.5" ry="2.5" style="stroke:#3C7FC0;stroke-width:0.5;" width="157" x="23.5" y="295"/><text fill="#FFFFFF" font-family="sans-serif" font-size="16" font-weight="bold" lengthAdjust="spacing" textLength="39" x="33.5" y="319.8516">task</text><text fill="#FFFFFF" font-family="sans-serif" font-size="16" font-weight="bold" lengthAdjust="spacing" textLength="6" x="72.5" y="319.8516">&#160;</text><text fill="#FFFFFF" font-family="sans-serif" font-size="16" font-weight="bold" lengthAdjust="spacing" textLength="92" x="78.5" y="319.8516">repository</text></g><!--entity task_repository_db--><g id="elem_task_repository_db"><path d="M79.5,456.5 C79.5,446.5 102,446.5 102,446.5 C102,446.5 124.5,446.5 124.5,456.5 L124.5,484.125 C124.5,494.125 102,494.125 102,494.125 C102,494.125 79.5,494.125 79.5,484.125 L79.5,456.5 " fill="#438DD5" style="stroke:#3C7FC0;stroke-width:0.5;"/><path d="M79.5,456.5 C79.5,466.5 102,466.5 102,466.5 C102,466.5 124.5,466.5 124.5,456.5 " fill="none" style="stroke:#3C7FC0;stroke-width:0.5;"/><text fill="#FFFFFF" font-family="sans-serif" font-size="16" font-weight="bold" lengthAdjust="spacing" textLength="25" x="89.5" y="485.3516">DB</text></g><!--entity goods_repository--><g id="elem_goods_repository"><rect fill="#999999" height="71.2188" rx="2.5" ry="2.5" style="stroke:#8A8A8A;stroke-width:0.5;" width="174" x="711" y="279"/><text fill="#FFFFFF" font-family="sans-serif" font-size="16" font-weight="bold" lengthAdjust="spacing" textLength="154" x="721" y="303.8516">goods_repository</text><text fill="#FFFFFF" font-family="sans-serif" font-size="14" lengthAdjust="spacing" textLength="4" x="796" y="320.6201">&#160;</text><text fill="#FFFFFF" font-family="sans-serif" font-size="14" lengthAdjust="spacing" textLength="4" x="796" y="336.917">&#160;</text></g><!--entity goods2_repository--><g id="elem_goods2_repository"><rect fill="#999999" height="71.2188" rx="2.5" ry="2.5" style="stroke:#8A8A8A;stroke-width:0.5;" width="185" x="979.5" y="279"/><text fill="#FFFFFF" font-family="sans-serif" font-size="16" font-weight="bold" lengthAdjust="spacing" textLength="165" x="989.5" y="303.8516">goods2_repository</text><text fill="#FFFFFF" font-family="sans-serif" font-size="14" lengthAdjust="spacing" textLength="4" x="1070" y="320.6201">&#160;</text><text fill="#FFFFFF" font-family="sans-serif" font-size="14" lengthAdjust="spacing" textLength="4" x="1070" y="336.917">&#160;</text></g><!--entity ext_system--><g id="elem_ext_system"><rect fill="#999999" height="71.2188" rx="2.5" ry="2.5" style="stroke:#8A8A8A;stroke-width:0.5;" width="122" x="708" y="435"/><text fill="#FFFFFF" font-family="sans-serif" font-size="16" font-weight="bold" lengthAdjust="spacing" textLength="102" x="718" y="459.8516">ext_system</text><text fill="#FFFFFF" font-family="sans-serif" font-size="14" lengthAdjust="spacing" textLength="4" x="767" y="476.6201">&#160;</text><text fill="#FFFFFF" font-family="sans-serif" font-size="14" lengthAdjust="spacing" textLength="4" x="767" y="492.917">&#160;</text></g><!--entity invoice_input--><g id="elem_invoice_input"><rect fill="#999999" height="71.2188" rx="2.5" ry="2.5" style="stroke:#8A8A8A;stroke-width:0.5;" width="134" x="865" y="435"/><text fill="#FFFFFF" font-family="sans-serif" font-size="16" font-weight="bold" lengthAdjust="spacing" textLength="114" x="875" y="459.8516">invoice_input</text><text fill="#FFFFFF" font-family="sans-serif" font-size="14" lengthAdjust="spacing" textLength="4" x="930" y="476.6201">&#160;</text><text fill="#FFFFFF" font-family="sans-serif" font-size="14" lengthAdjust="spacing" textLength="4" x="930" y="492.917">&#160;</text></g><!--entity invoice_output--><g id="elem_invoice_output"><rect fill="#999999" height="71.2188" rx="2.5" ry="2.5" style="stroke:#8A8A8A;stroke-width:0.5;" width="149" x="1034.5" y="435"/><text fill="#FFFFFF" font-family="sans-serif" font-size="16" font-weight="bold" lengthAdjust="spacing" textLength="129" x="1044.5" y="459.8516">invoice_output</text><text fill="#FFFFFF" font-family="sans-serif" font-size="14" lengthAdjust="spacing" textLength="4" x="1107" y="476.6201">&#160;</text><text fill="#FFFFFF" font-family="sans-serif" font-size="14" lengthAdjust="spacing" textLength="4" x="1107" y="492.917">&#160;</text></g><!--entity stock--><g id="elem_stock"><rect fill="#999999" height="71.2188" rx="2.5" ry="2.5" style="stroke:#8A8A8A;stroke-width:0.5;" width="70" x="1247" y="435"/><text fill="#FFFFFF" font-family="sans-serif" font-size="16" font-weight="bold" lengthAdjust="spacing" textLength="50" x="1257" y="459.8516">stock</text><text fill="#FFFFFF" font-family="sans-serif" font-size="14" lengthAdjust="spacing" textLength="4" x="1280" y="476.6201">&#160;</text><text fill="#FFFFFF" font-family="sans-serif" font-size="14" lengthAdjust="spacing" textLength="4" x="1280" y="492.917">&#160;</text></g><!--link invoice_repository to invoice_repository_db--><g id="link_invoice_repository_invoice_repository_db"><path d="M305,334.08 C305,359.82 305,406.68 305,437.96 " fill="none" id="invoice_repository-to-invoice_repository_db" style="stroke:#666666;stroke-width:1.0;"/><polygon fill="#666666" points="305,446.34,308,438.34,302,438.34,305,446.34" style="stroke:#666666;stroke-width:1.0;"/><text fill="#666666" font-family="sans-serif" font-size="0" lengthAdjust="spacing" textLength="0" x="306" y="387.5">.</text></g><!--link task_repository to task_repository_db--><g id="link_task_repository_task_repository_db"><path d="M102,334.08 C102,359.82 102,406.68 102,437.96 " fill="none" id="task_repository-to-task_repository_db" style="stroke:#666666;stroke-width:1.0;"/><polygon fill="#666666" points="102,446.34,105,438.34,99,438.34,102,446.34" style="stroke:#666666;stroke-width:1.0;"/><text fill="#666666" font-family="sans-serif" font-size="0" lengthAdjust="spacing" textLength="0" x="103" y="387.5">.</text></g><!--link bff to invoice_repository--><g id="link_bff_invoice_repository"><path d="M323.02,83.14 C319.9,112.9 313.82,172.97 310,224 C308.42,245.07 307.11,268.97 306.23,286.77 " fill="none" id="bff-to-invoice_repository" style="stroke:#666666;stroke-width:1.0;"/><polygon fill="#666666" points="305.83,294.97,309.2125,287.124,303.2194,286.8346,305.83,294.97" style="stroke:#666666;stroke-width:1.0;"/><text fill="#666666" font-family="sans-serif" font-size="0" lengthAdjust="spacing" textLength="0" x="317" y="169.5">.</text></g><!--link bff to task_repository--><g id="link_bff_task_repository"><path d="M308.24,83.22 C268.51,127.58 168.62,239.11 124.06,288.87 " fill="none" id="bff-to-task_repository" style="stroke:#666666;stroke-width:1.0;"/><polygon fill="#666666" points="118.65,294.91,126.2248,290.9575,121.7581,286.9514,118.65,294.91" style="stroke:#666666;stroke-width:1.0;"/><text fill="#666666" font-family="sans-serif" font-size="0" lengthAdjust="spacing" textLength="0" x="244" y="169.5">.</text></g><!--link bff to camunda--><g id="link_bff_camunda"><path d="M336.67,83.49 C347.62,101.3 364.09,128.09 376.21,147.81 " fill="none" id="bff-to-camunda" style="stroke:#666666;stroke-width:1.0;"/><polygon fill="#666666" points="380.46,154.73,378.8291,146.3431,373.7165,149.4835,380.46,154.73" style="stroke:#666666;stroke-width:1.0;"/><text fill="#666666" font-family="sans-serif" font-size="0" lengthAdjust="spacing" textLength="0" x="362" y="114">.</text></g><!--link bff to goods_acl--><g id="link_bff_goods_acl"><path d="M347.97,72.87 C394.02,89.66 498.94,127.91 565.34,152.12 " fill="none" id="bff-to-goods_acl" style="stroke:#666666;stroke-width:1.0;"/><polygon fill="#666666" points="573.24,155,566.7503,149.4427,564.6964,155.0802,573.24,155" style="stroke:#666666;stroke-width:1.0;"/><text fill="#666666" font-family="sans-serif" font-size="0" lengthAdjust="spacing" textLength="0" x="485" y="114">.</text></g><!--link camunda to invoice_repository--><g id="link_camunda_invoice_repository"><path d="M382.79,194.01 C375.07,209.1 363.49,230.83 352,249 C343.58,262.31 333.37,276.52 324.62,288.2 " fill="none" id="camunda-to-invoice_repository" style="stroke:#666666;stroke-width:1.0;"/><polygon fill="#666666" points="319.66,294.77,326.8715,290.188,322.0805,286.576,319.66,294.77" style="stroke:#666666;stroke-width:1.0;"/><text fill="#666666" font-family="sans-serif" font-size="0" lengthAdjust="spacing" textLength="0" x="368" y="231.5">.</text></g><!--link camunda to task_repository--><g id="link_camunda_task_repository"><path d="M352.89,194.11 C299.77,219.39 204.97,264.5 148.34,291.45 " fill="none" id="camunda-to-task_repository" style="stroke:#666666;stroke-width:1.0;"/><polygon fill="#666666" points="140.95,294.96,149.4621,294.2219,146.8779,288.8069,140.95,294.96" style="stroke:#666666;stroke-width:1.0;"/><text fill="#666666" font-family="sans-serif" font-size="0" lengthAdjust="spacing" textLength="0" x="291" y="231.5">.</text></g><!--link camunda to stock_acl--><g id="link_camunda_stock_acl"><path d="M423.56,194.11 C466.07,219.18 541.67,263.77 587.48,290.78 " fill="none" id="camunda-to-stock_acl" style="stroke:#666666;stroke-width:1.0;"/><polygon fill="#666666" points="594.57,294.96,589.2004,288.3141,586.1545,293.4835,594.57,294.96" style="stroke:#666666;stroke-width:1.0;"/><text fill="#666666" font-family="sans-serif" font-size="0" lengthAdjust="spacing" textLength="0" x="518" y="231.5">.</text></g><!--link camunda to invoice_acl--><g id="link_camunda_invoice_acl"><path d="M404.54,194.11 C420.84,218.29 449.36,260.62 467.7,287.83 " fill="none" id="camunda-to-invoice_acl" style="stroke:#666666;stroke-width:1.0;"/><polygon fill="#666666" points="472.36,294.74,470.3732,286.4302,465.3991,289.7856,472.36,294.74" style="stroke:#666666;stroke-width:1.0;"/><text fill="#666666" font-family="sans-serif" font-size="0" lengthAdjust="spacing" textLength="0" x="443" y="231.5">.</text></g><!--link goods_acl to goods_repository--><g id="link_goods_acl_goods_repository"><path d="M647.47,194.11 C673.03,214.39 714.7,247.43 747.72,273.62 " fill="none" id="goods_acl-to-goods_repository" style="stroke:#666666;stroke-width:1.0;"/><polygon fill="#666666" points="754.2,278.76,749.7944,271.4394,746.0672,276.1413,754.2,278.76" style="stroke:#666666;stroke-width:1.0;"/><text fill="#666666" font-family="sans-serif" font-size="0" lengthAdjust="spacing" textLength="0" x="863" y="225">.</text><text fill="#666666" font-family="sans-serif" font-size="12" font-style="italic" lengthAdjust="spacing" textLength="41" x="717" y="246.1387">[https:</text><text fill="#666666" font-family="sans-serif" font-size="12" lengthAdjust="spacing" textLength="251" x="758" y="246.1387">gateway.int.com:443/goods/v1]&lt;/size&gt;//</text></g><!--link goods_acl to goods2_repository--><g id="link_goods_acl_goods2_repository"><path d="M676.25,176.36 C770.13,178.8 962.7,188.15 1018,224 C1035.19,235.14 1047.72,253.86 1056.35,271.3 " fill="none" id="goods_acl-to-goods2_repository" style="stroke:#666666;stroke-width:1.0;"/><polygon fill="#666666" points="1059.82,278.68,1059.1362,270.1634,1053.7048,272.713,1059.82,278.68" style="stroke:#666666;stroke-width:1.0;"/><text fill="#666666" font-family="sans-serif" font-size="0" lengthAdjust="spacing" textLength="0" x="1193" y="225">.</text><text fill="#666666" font-family="sans-serif" font-size="12" font-style="italic" lengthAdjust="spacing" textLength="41" x="1043" y="246.1387">[https:</text><text fill="#666666" font-family="sans-serif" font-size="12" lengthAdjust="spacing" textLength="259" x="1084" y="246.1387">gateway.int.com:443/goods2/v1]&lt;/size&gt;//</text></g><!--link invoice_acl to ext_system--><g id="link_invoice_acl_ext_system"><path d="M508.38,334.07 C533.62,353.52 575.53,384.09 615,405 C647.45,422.2 658.12,420.82 692,435 C694.73,436.14 697.5,437.32 700.3,438.52 " fill="none" id="invoice_acl-to-ext_system" style="stroke:#666666;stroke-width:1.0;"/><polygon fill="#666666" points="707.76,441.73,701.6053,435.8039,699.2262,441.3121,707.76,441.73" style="stroke:#666666;stroke-width:1.0;"/><text fill="#666666" font-family="sans-serif" font-size="0" lengthAdjust="spacing" textLength="0" x="752" y="381">.</text><text fill="#666666" font-family="sans-serif" font-size="12" font-style="italic" lengthAdjust="spacing" textLength="41" x="616" y="402.1387">[https:</text><text fill="#666666" font-family="sans-serif" font-size="12" lengthAdjust="spacing" textLength="231" x="657" y="402.1387">gateway.int.com:443/ext/v1]&lt;/size&gt;//</text></g><!--link invoice_acl to invoice_input--><g id="link_invoice_acl_invoice_input"><path d="M517.85,334.04 C530.09,340.13 544.34,346.29 558,350 C630.13,369.6 832.37,336.29 893,380 C908.38,391.09 917.77,409.58 923.46,426.88 " fill="none" id="invoice_acl-to-invoice_input" style="stroke:#666666;stroke-width:1.0;stroke-dasharray:1.0,3.0;"/><polygon fill="#666666" points="925.82,434.71,926.3918,426.1851,920.6454,427.9112,925.82,434.71" style="stroke:#666666;stroke-width:1.0;"/><text fill="#666666" font-family="sans-serif" font-size="0" lengthAdjust="spacing" textLength="0" x="976.5" y="381">.</text><text fill="#666666" font-family="sans-serif" font-size="12" font-style="italic" lengthAdjust="spacing" textLength="125" x="914" y="402.1387">[orig-invoice-q8s-v1]</text></g><!--link invoice_acl to invoice_output--><g id="link_invoice_acl_invoice_output"><path d="M517.43,334.07 C529.75,340.25 544.15,346.44 558,350 C663.67,377.13 953.16,326.09 1048,380 C1066.6,390.57 1080.71,409.42 1090.65,427.1 " fill="none" id="invoice_acl-to-invoice_output" style="stroke:#666666;stroke-width:1.0;stroke-dasharray:1.0,3.0;"/><polygon fill="#666666" points="1094.66,434.58,1093.5219,426.1121,1088.2346,428.9484,1094.66,434.58" style="stroke:#666666;stroke-width:1.0;"/><text fill="#666666" font-family="sans-serif" font-size="0" lengthAdjust="spacing" textLength="0" x="1143" y="381">.</text><text fill="#666666" font-family="sans-serif" font-size="12" font-style="italic" lengthAdjust="spacing" textLength="136" x="1075" y="402.1387">[result-invoice-q8s-v1]</text></g><!--link stock_acl to stock--><g id="link_stock_acl_stock"><path d="M656.06,334.12 C667.52,340.3 680.96,346.49 694,350 C807.05,380.47 1117.88,322.75 1220,380 C1239.07,390.69 1253.56,409.99 1263.72,427.93 " fill="none" id="stock_acl-to-stock" style="stroke:#666666;stroke-width:1.0;"/><polygon fill="#666666" points="1267.54,434.98,1266.3743,426.5159,1261.0963,429.3694,1267.54,434.98" style="stroke:#666666;stroke-width:1.0;"/><text fill="#666666" font-family="sans-serif" font-size="0" lengthAdjust="spacing" textLength="0" x="1390.5" y="381">.</text><text fill="#666666" font-family="sans-serif" font-size="12" font-style="italic" lengthAdjust="spacing" textLength="41" x="1247" y="402.1387">[https:</text><text fill="#666666" font-family="sans-serif" font-size="12" lengthAdjust="spacing" textLength="246" x="1288" y="402.1387">gateway.int.com:443/stock/v1]&lt;/size&gt;//</text></g><text fill="#000000" font-family="sans-serif" font-size="14" font-weight="bold" lengthAdjust="spacing" textLength="59" x="1379" y="547.4951">Legend</text><text fill="#FFFFFF" font-family="sans-serif" font-size="14" lengthAdjust="spacing" textLength="4" x="1438" y="547.4951">&#160;</text><rect fill="#08427B" height="16.2969" style="stroke:none;stroke-width:1.0;" width="132" x="1379" y="550.7969"/><text fill="#FFFFFF" font-family="sans-serif" font-size="14" lengthAdjust="spacing" textLength="49" x="1383" y="563.792">person</text><rect fill="#1168BD" height="16.2969" style="stroke:none;stroke-width:1.0;" width="132" x="1379" y="567.0938"/><text fill="#FFFFFF" font-family="sans-serif" font-size="14" lengthAdjust="spacing" textLength="50" x="1383" y="580.0889">system</text><rect fill="#438DD5" height="16.2969" style="stroke:none;stroke-width:1.0;" width="132" x="1379" y="583.3906"/><text fill="#FFFFFF" font-family="sans-serif" font-size="14" lengthAdjust="spacing" textLength="65" x="1383" y="596.3857">container</text><rect fill="#686868" height="16.2969" style="stroke:none;stroke-width:1.0;" width="132" x="1379" y="599.6875"/><text fill="#FFFFFF" font-family="sans-serif" font-size="14" lengthAdjust="spacing" textLength="108" x="1383" y="612.6826">external person</text><rect fill="#999999" height="16.2969" style="stroke:none;stroke-width:1.0;" width="132" x="1379" y="615.9844"/><text fill="#FFFFFF" font-family="sans-serif" font-size="14" lengthAdjust="spacing" textLength="109" x="1383" y="628.9795">external system</text><rect fill="#B3B3B3" height="16.2969" style="stroke:none;stroke-width:1.0;" width="132" x="1379" y="632.2813"/><text fill="#FFFFFF" font-family="sans-serif" font-size="14" lengthAdjust="spacing" textLength="124" x="1383" y="645.2764">external container</text><line style="stroke:#FFFFFF;stroke-width:1.0;" x1="1379" x2="1511" y1="534.5" y2="534.5"/><line style="stroke:#FFFFFF;stroke-width:1.0;" x1="1379" x2="1511" y1="550.7969" y2="550.7969"/><line style="stroke:#FFFFFF;stroke-width:1.0;" x1="1379" x2="1511" y1="567.0938" y2="567.0938"/><line style="stroke:#FFFFFF;stroke-width:1.0;" x1="1379" x2="1511" y1="583.3906" y2="583.3906"/><line style="stroke:#FFFFFF;stroke-width:1.0;" x1="1379" x2="1511" y1="599.6875" y2="599.6875"/><line style="stroke:#FFFFFF;stroke-width:1.0;" x1="1379" x2="1511" y1="615.9844" y2="615.9844"/><line style="stroke:#FFFFFF;stroke-width:1.0;" x1="1379" x2="1511" y1="632.2813" y2="632.2813"/><line style="stroke:#FFFFFF;stroke-width:1.0;" x1="1379" x2="1511" y1="648.5781" y2="648.5781"/><line style="stroke:#FFFFFF;stroke-width:1.0;" x1="1379" x2="1379" y1="534.5" y2="648.5781"/><line style="stroke:#FFFFFF;stroke-width:1.0;" x1="1511" x2="1511" y1="534.5" y2="648.5781"/><!--SRC=[xLrXSviu6lxEhz2b_P1sDd6CCSQ-r7C6cxthfTkTRRixDzkT3BPLXwi3Ni1jihlzxok4084423ifJ0Tbsh6bzv4UlKYFNcGR0G30FsndjTsl8RW9Wfq_wVKyw_FvnWvkzikz3xsLwmJG2SvNxcrljxMSO7-xFVE3zTPUzWpbxCSmwzshgzwjvGVGGrdN1a9OjWEzynsobL0Ju6hslzVltbx_yf-t_xw-Mdo_-65- -WmNpDRhd-3shRKvFR7yUsTryXq0JxS8_2QutqBm0ipT883hAvHp-Yo1BBRm5d6AOAij1YqtXhjrFGGvUQAQuy5mU1BPw-xUMLlU_UdES_yFLy5tuEJrtWF-FU9xU_BiJsIKC3vTVlY0oj7_29pchgpRi0vKGbvbIZUkk_Ql4GzKZb-3YDC9-VSqi3R-2qoKXjdE9zTUGG8ax-f1FRXpVJjmlNkgXZIJnioN7DJrUec0SnqPegl0hRO8H9mRfvIR7xYhZwHJ-BLObmBB_vZjJvXJt9cSVQudJ6rSyrmVlc0e7W5S1-VC4sEMUf5bEewABEYnnB59AX0bc024I2RMz4KKeS6rV8DdsFNYBY1J9DDyFYiS7e1SFieB76He6MlLnWhWP-l-t8uKQg8eWnw6z3xrA-Z873wo827v04PoAILu5rn7aeJgIj_G93BEpjXNjO-CInkFQxQTtJv8fIHwNqWXZmeDNS_Ud962izyr_mmrcyvvhF2LBDnzaAKHPLJoI72XfGVz_JOub0eU_x60qGrJ4oEsgN8-jcFT_o_ehCFbiJZv7v5dBS-w1MlumKAzUOkkusnhRvnmyGChz1_qQBFFdhNxnLu7Dq2-kA3oRwsxLz3thGryO_y1GNzuGQEku0PHCP6sHWle4nCdnaAtLXytNhYOHdQ1Ppa-Ca0qM5lNMqEFjQCCFRGKMyvc2oyljnWpyw0rdO8_iPUMIMChfX9SZXjWoxvmco2Lla7-WcvmluDXRoDVo5d8sWgifUNNGFo-X_iQvkZ_m5xPEnGrYOCiptC_4tDoaLISS0vrwNAvV0RGyrsdHkChf7Abvc69Z-CrwpFqtLiOLi2_r4iIZ2KNcbEZoYamkACW6cPHgBYs_1kupZjxzH6D-eTe2aDmGoW8jfse-P8PyKLwn1GsBkXVQd0eE5KoJntBmV4SpiwUfddWETaqYMYUDSq2pzvI4an3Z-IELFYQzeaFqG1nLd3ftZK-I2A5ecbKgL75lA-2buW73YXsdkt3wxReI6ie4Kbf3PzONLf3Y0YD69ycDASrdih8Jti6LAn4N4O7YT91DPK9L7J3snfnQWKT8aoju1ABKYl8446gvjA46BN2GnaXQiS0YaM8ONEG0DMkfKnyLl7kSslqfosCY0IrXKwiGctXGuH8Y4uJMjGMFsNag3M3ALOa7g63HEcGYcecRhlHj2ZOUCjk_UQyJENclVpaGbFaaSvw-68qq5MpGBWQfq8Kgt4UiLGrJeHeb0WFgbP-xb4EeOMfSQza5AaXDWMp6TwXzXrhU_quj5Gj_6DfQRFmhsYpfZMSujsQrX1AjcjQmoZUhwb3YAgUdtkKYpARDQtnKtQtfc5QKjbzpaEpwVTLJP-pR0R6o3GkIlT46gIIsGzfa4TsBwH18fbza78ULAtytACSmkv_DEWLpjx7LsTJjRG_3gqnJeSkxOrpoY_jZHDYblR66UMNTX52LFNytADSn5tQ6_SJVsblY5RtkKVtkKVtkKVtkKVhFlVelXNIVIka-rP8zwsGXhyLWZ_NGB00WgVaAyo_AjgTelNwwc_8DHSrqyC0bB5k6BEHB0XG5oP9-a00q3TCAeqg0Vs5cKbQ5S0mSqaj1unC9lNB07tMtXoN0LGEm2m3w3o0KW9Oy02Z4W3FFkVP8m5p7a0j0SpgTfhdraNfbLvKTU7OeS6vTCEguJqlkshS6QUNrS-TeiEaaLbVK0G6evckZzN-uycCE40UZZIDqfQXfgbAln0m8hsTZrLbC516iRzqXGjGkBE7GFeiO6IMfRcS1wXcULhqiu21MPNqB42l1CIZH19i07M31em50APC0UOY09K2YDYJkIeLQJ2RPdK1Uli0L1yk5YA04GLG1Up9y2DZIQiU6OFiyEuhmz8q-8ggyIKVJidLyLGNxNJHJXVjTD6EKBI38v5yB9AFHYGc4c5ZaKmq8Wb48fbeH1A9HEXevB3bO51tITE50D5Lb8GR8D6891g9nD6891g9n9DL4er4uhaaYQxYiPzQ1fWTsEdwRaqkN460eUKlt40GC6S6NmLWo0plSe3EJg1IG3QU6bK2ibEKY40982y2aSmK0ZWoGmbPFkM4Z8gdF7Vf1ctOdUe0ZGA6V8rVZFah83_GYI03xf8fSgTC0mHk6JC0fHHWi82Xo8soE61n740TZvKOO2Xowgxq3GACnneHKWr7MSFKVofTxIX-IO8zARgXY04p-Wu0H_qo3HXYm9m2wAaDGG_A0JZcJSR8897nOe0vqwZL9tbJ0YXqwxS5e2-SgOrooM01zD0mcT1tp0wDpE0RgRbai8FlAyo7m-Pq-LRAY0CO2ca0hNoAKMHFQsNkRfkRkXNecm3aewcApQbyR5P5OCRVEYm466KpXGFWtPqkbBfx7BCIW5Pts-Mn0SZhN43cOaYPwhM2k5th00UxjOr3usi0U2k8mPrnIYGHYiOW32qkem56Mima8wi6ajZ70cbdf09nALoQ9V46qXs83j017XnGjJdLOa0ouoe01ZEdAm0Qenhb08FHfL7HNfFAw5BDSAhxNNZtk_3kT-7Vqk_2kn-6TpyCxtuOtlqmV5R-iE7oXz0yD5DbeCtdmve_6cy3c_n3h1gamZp0ga4k-OTNbLEXAkRd7kKMxaEh6lGD_u5LNvrGLI3mQCpqGVZ7CfkfuLzLBD06Mlbme0sSc8YW3QJoGO4W9we5VkvHZkB61Mtm5ZyqQ8vPzrZBxh6MtMCjkyTQjlsnbY7n6tiDWPy0fUXm8E3Pcvj0-kiI7_apUHBjQqwVFu_E6th-_BA7IwRWBsH4Ta-cyLatE2zw7C-K7FmNvKMnrHGavAFiw7Ph2cBfpjGJFSc3AgGhZAIOAgHhHaIZtkIFzhcynETH9KCXyjG_mtCGpzVu0CJCnQEyRgss2OgzQyJ781QeR5qaKSEwi5YrwkA8kj0m_iv31CtlFAIvGYHftQZBD3E_nS2uE3sTwkJ52q0TIGaoXv9OFY07Lv9gixZmg4gGlVj029GhvItZeojPQrB28DB3B07f6GDD3iPZmFI1beLmwXotmWge4_b0OGMf4QedESGhh6Qk2y6krqk9pGLdPmZ0jGOJSEdRVy39nVJyiXU-ccRETyjt9pqBiz0RoU5oZ2_oPs6oFSgTxoZa1VPGJ2cN5VMVjQlg_1S9ZS0YvrM14sYUZ2YEZ6TX-sGGLo7YYW_iM0PUitCPR39G3Y8iWECg0SNslVFU0U68Of-QbOW2DHXJ1rF-BktxUwVNY_BwylHNaTC-VoF8Ng-w9tAzhiXLVP4Vj3EoU6_IKq3Bkv7QIVGem3r8ouwY7fqnAiWxStHeEVMCASi-KmpIGAggAvo3IcjoZuuR5ICVsHQpZyfhqESURohO0QmUvRonYPJAJAewHusH-2ZK0gB9aQZneUBW4ueURHHuzy_b2tbmFZerFHkyikv1NmRzqKGUJ1GPl7jhWB3ucNJw_OzNm7Vt7WeRrhOVUFPo7o3yC-cbzSa2F-sTmBw54_1w1vsNy__66M3XVB8z5n-hAhty-LLge2fdkXs0Dz13JC3FhwHvT18hGgpSjUri9gXryqoJhf1xz-Y6QWAW8naeUWky-mbmzjljtm00]--></g></svg>