<?xml version="1.0" encoding="us-ascii" standalone="no"?><svg xmlns="http://www.w3.org/2000/svg" xmlns:xlink="http://www.w3.org/1999/xlink" contentStyleType="text/css" height="674px" preserveAspectRatio="none" style="width:545px;height:674px;background:#FFFFFF;" version="1.1" viewBox="0 0 545 674" width="545px" zoomAndPan="magnify"><defs/><g><!--cluster boundary0--><g id="cluster_boundary0"><rect fill="none" height="406" rx="2.5" ry="2.5" style="stroke:#444444;stroke-width:1.0;stroke-dasharray:7.0,7.0;" width="532" x="7" y="7"/><text fill="#444444" font-family="sans-serif" font-size="16" font-weight="bold" lengthAdjust="spacing" textLength="109" x="218.5" y="23.8516">&#1053;&#1072;&#1096; &#1087;&#1088;&#1086;&#1077;&#1082;&#1090;</text></g><!--cluster boundary1--><g id="cluster_boundary1"><rect fill="none" height="337" rx="2.5" ry="2.5" style="stroke:#444444;stroke-width:1.0;stroke-dasharray:7.0,7.0;" width="266" x="31" y="52"/><text fill="#444444" font-family="sans-serif" font-size="16" font-weight="bold" lengthAdjust="spacing" textLength="102" x="113" y="68.8516">&#1050;&#1086;&#1085;&#1090;&#1077;&#1082;&#1089;&#1090; 1</text></g><!--cluster boundary2--><g id="cluster_boundary2"><rect fill="none" height="203" rx="2.5" ry="2.5" style="stroke:#444444;stroke-width:1.0;stroke-dasharray:7.0,7.0;" width="194" x="321" y="186"/><text fill="#444444" font-family="sans-serif" font-size="16" font-weight="bold" lengthAdjust="spacing" textLength="102" x="367" y="202.8516">&#1050;&#1086;&#1085;&#1090;&#1077;&#1082;&#1089;&#1090; 2</text></g><!--entity service1--><g id="elem_service1"><rect fill="#438DD5" height="38.625" rx="2.5" ry="2.5" style="stroke:#3C7FC0;stroke-width:0.5;" width="161" x="119.5" y="89"/><text fill="#FFFFFF" font-family="sans-serif" font-size="16" font-weight="bold" lengthAdjust="spacing" textLength="123" x="129.5" y="113.8516">&#1052;&#1080;&#1082;&#1088;&#1086;&#1089;&#1077;&#1088;&#1074;&#1080;&#1089;</text><text fill="#FFFFFF" font-family="sans-serif" font-size="16" font-weight="bold" lengthAdjust="spacing" textLength="6" x="252.5" y="113.8516">&#160;</text><text fill="#FFFFFF" font-family="sans-serif" font-size="16" font-weight="bold" lengthAdjust="spacing" textLength="12" x="258.5" y="113.8516">A</text></g><!--entity service2--><g id="elem_service2"><rect fill="#438DD5" height="38.625" rx="2.5" ry="2.5" style="stroke:#3C7FC0;stroke-width:0.5;" width="161" x="119.5" y="223"/><text fill="#FFFFFF" font-family="sans-serif" font-size="16" font-weight="bold" lengthAdjust="spacing" textLength="123" x="129.5" y="247.8516">&#1052;&#1080;&#1082;&#1088;&#1086;&#1089;&#1077;&#1088;&#1074;&#1080;&#1089;</text><text fill="#FFFFFF" font-family="sans-serif" font-size="16" font-weight="bold" lengthAdjust="spacing" textLength="6" x="252.5" y="247.8516">&#160;</text><text fill="#FFFFFF" font-family="sans-serif" font-size="16" font-weight="bold" lengthAdjust="spacing" textLength="12" x="258.5" y="247.8516">B</text></g><!--entity service3--><g id="elem_service3"><rect fill="#438DD5" height="38.625" rx="2.5" ry="2.5" style="stroke:#3C7FC0;stroke-width:0.5;" width="161" x="62.5" y="334"/><text fill="#FFFFFF" font-family="sans-serif" font-size="16" font-weight="bold" lengthAdjust="spacing" textLength="123" x="72.5" y="358.8516">&#1052;&#1080;&#1082;&#1088;&#1086;&#1089;&#1077;&#1088;&#1074;&#1080;&#1089;</text><text fill="#FFFFFF" font-family="sans-serif" font-size="16" font-weight="bold" lengthAdjust="spacing" textLength="6" x="195.5" y="358.8516">&#160;</text><text fill="#FFFFFF" font-family="sans-serif" font-size="16" font-weight="bold" lengthAdjust="spacing" textLength="12" x="201.5" y="358.8516">C</text></g><!--entity service4--><g id="elem_service4"><rect fill="#438DD5" height="38.625" rx="2.5" ry="2.5" style="stroke:#3C7FC0;stroke-width:0.5;" width="161" x="337.5" y="223"/><text fill="#FFFFFF" font-family="sans-serif" font-size="16" font-weight="bold" lengthAdjust="spacing" textLength="123" x="347.5" y="247.8516">&#1052;&#1080;&#1082;&#1088;&#1086;&#1089;&#1077;&#1088;&#1074;&#1080;&#1089;</text><text fill="#FFFFFF" font-family="sans-serif" font-size="16" font-weight="bold" lengthAdjust="spacing" textLength="6" x="470.5" y="247.8516">&#160;</text><text fill="#FFFFFF" font-family="sans-serif" font-size="16" font-weight="bold" lengthAdjust="spacing" textLength="12" x="476.5" y="247.8516">X</text></g><!--entity service5--><g id="elem_service5"><rect fill="#438DD5" height="38.625" rx="2.5" ry="2.5" style="stroke:#3C7FC0;stroke-width:0.5;" width="161" x="337.5" y="334"/><text fill="#FFFFFF" font-family="sans-serif" font-size="16" font-weight="bold" lengthAdjust="spacing" textLength="123" x="347.5" y="358.8516">&#1052;&#1080;&#1082;&#1088;&#1086;&#1089;&#1077;&#1088;&#1074;&#1080;&#1089;</text><text fill="#FFFFFF" font-family="sans-serif" font-size="16" font-weight="bold" lengthAdjust="spacing" textLength="6" x="470.5" y="358.8516">&#160;</text><text fill="#FFFFFF" font-family="sans-serif" font-size="16" font-weight="bold" lengthAdjust="spacing" textLength="12" x="476.5" y="358.8516">Y</text></g><!--entity ext--><g id="elem_ext"><rect fill="#999999" height="38.625" rx="2.5" ry="2.5" style="stroke:#8A8A8A;stroke-width:0.5;" width="182" x="52" y="471"/><text fill="#FFFFFF" font-family="sans-serif" font-size="16" font-weight="bold" lengthAdjust="spacing" textLength="82" x="62" y="495.8516">&#1042;&#1085;&#1077;&#1096;&#1085;&#1103;&#1103;</text><text fill="#FFFFFF" font-family="sans-serif" font-size="16" font-weight="bold" lengthAdjust="spacing" textLength="6" x="144" y="495.8516">&#160;</text><text fill="#FFFFFF" font-family="sans-serif" font-size="16" font-weight="bold" lengthAdjust="spacing" textLength="74" x="150" y="495.8516">&#1089;&#1080;&#1089;&#1090;&#1077;&#1084;&#1072;</text></g><!--link service1 to service2--><g id="link_service1_service2"><path d="M200,128.13 C200,150.73 200,189 200,214.75 " fill="none" id="service1-to-service2" style="stroke:#666666;stroke-width:1.0;"/><polygon fill="#666666" points="200,222.96,203,214.96,197,214.96,200,222.96" style="stroke:#666666;stroke-width:1.0;"/><text fill="#666666" font-family="sans-serif" font-size="0" lengthAdjust="spacing" textLength="0" x="201" y="159">.</text></g><!--link service1 to service3--><g id="link_service1_service3"><path d="M155.29,128.04 C134.48,139.21 111.78,155.66 100,178 C74.26,226.83 104.63,291.51 125.86,326.81 " fill="none" id="service1-to-service3" style="stroke:#666666;stroke-width:1.0;"/><polygon fill="#666666" points="130.22,333.88,128.5557,325.4997,123.4557,328.6604,130.22,333.88" style="stroke:#666666;stroke-width:1.0;"/><text fill="#666666" font-family="sans-serif" font-size="0" lengthAdjust="spacing" textLength="0" x="101" y="237.5">.</text></g><!--link service2 to service3--><g id="link_service2_service3"><path d="M190.07,262.49 C180.79,280.23 166.87,306.86 156.57,326.55 " fill="none" id="service2-to-service3" style="stroke:#666666;stroke-width:1.0;"/><polygon fill="#666666" points="152.81,333.73,159.1813,328.0373,153.8671,325.2516,152.81,333.73" style="stroke:#666666;stroke-width:1.0;"/><text fill="#666666" font-family="sans-serif" font-size="0" lengthAdjust="spacing" textLength="0" x="174" y="293">.</text></g><!--link service1 to service4--><g id="link_service1_service4"><path d="M230.77,128.13 C270.05,151.91 337.96,193.04 380.3,218.67 " fill="none" id="service1-to-service4" style="stroke:#666666;stroke-width:1.0;"/><polygon fill="#666666" points="387.38,222.96,382.0902,216.2504,378.9828,221.3831,387.38,222.96" style="stroke:#666666;stroke-width:1.0;"/><text fill="#666666" font-family="sans-serif" font-size="0" lengthAdjust="spacing" textLength="0" x="296" y="159">.</text></g><!--link service2 to service5--><g id="link_service2_service5"><path d="M237.48,262.24 C275.18,281.09 333.33,310.16 373.39,330.19 " fill="none" id="service2-to-service5" style="stroke:#666666;stroke-width:1.0;"/><polygon fill="#666666" points="380.65,333.82,374.8412,327.5544,372.1537,332.9188,380.65,333.82" style="stroke:#666666;stroke-width:1.0;"/><text fill="#666666" font-family="sans-serif" font-size="0" lengthAdjust="spacing" textLength="0" x="316" y="293">.</text></g><!--link service4 to service5--><g id="link_service4_service5"><path d="M418,262.49 C418,279.91 418,305.92 418,325.51 " fill="none" id="service4-to-service5" style="stroke:#666666;stroke-width:1.0;"/><polygon fill="#666666" points="418,333.73,421,325.73,415,325.73,418,333.73" style="stroke:#666666;stroke-width:1.0;"/><text fill="#666666" font-family="sans-serif" font-size="0" lengthAdjust="spacing" textLength="0" x="419" y="293">.</text></g><!--link service3 to ext--><g id="link_service3_ext"><path d="M143,373.27 C143,396.54 143,436.37 143,462.81 " fill="none" id="service3-to-ext" style="stroke:#666666;stroke-width:1.0;"/><polygon fill="#666666" points="143,470.89,146,462.89,140,462.89,143,470.89" style="stroke:#666666;stroke-width:1.0;"/><text fill="#666666" font-family="sans-serif" font-size="0" lengthAdjust="spacing" textLength="0" x="144" y="430">.</text></g><text fill="#000000" font-family="sans-serif" font-size="14" font-weight="bold" lengthAdjust="spacing" textLength="59" x="382" y="546.6201">Legend</text><text fill="#FFFFFF" font-family="sans-serif" font-size="14" lengthAdjust="spacing" textLength="4" x="441" y="546.6201">&#160;</text><rect fill="#08427B" height="16.2969" style="stroke:none;stroke-width:1.0;" width="132" x="382" y="549.9219"/><text fill="#FFFFFF" font-family="sans-serif" font-size="14" lengthAdjust="spacing" textLength="49" x="386" y="562.917">person</text><rect fill="#1168BD" height="16.2969" style="stroke:none;stroke-width:1.0;" width="132" x="382" y="566.2188"/><text fill="#FFFFFF" font-family="sans-serif" font-size="14" lengthAdjust="spacing" textLength="50" x="386" y="579.2139">system</text><rect fill="#438DD5" height="16.2969" style="stroke:none;stroke-width:1.0;" width="132" x="382" y="582.5156"/><text fill="#FFFFFF" font-family="sans-serif" font-size="14" lengthAdjust="spacing" textLength="65" x="386" y="595.5107">container</text><rect fill="#686868" height="16.2969" style="stroke:none;stroke-width:1.0;" width="132" x="382" y="598.8125"/><text fill="#FFFFFF" font-family="sans-serif" font-size="14" lengthAdjust="spacing" textLength="108" x="386" y="611.8076">external person</text><rect fill="#999999" height="16.2969" style="stroke:none;stroke-width:1.0;" width="132" x="382" y="615.1094"/><text fill="#FFFFFF" font-family="sans-serif" font-size="14" lengthAdjust="spacing" textLength="109" x="386" y="628.1045">external system</text><rect fill="#B3B3B3" height="16.2969" style="stroke:none;stroke-width:1.0;" width="132" x="382" y="631.4063"/><text fill="#FFFFFF" font-family="sans-serif" font-size="14" lengthAdjust="spacing" textLength="124" x="386" y="644.4014">external container</text><line style="stroke:#FFFFFF;stroke-width:1.0;" x1="382" x2="514" y1="533.625" y2="533.625"/><line style="stroke:#FFFFFF;stroke-width:1.0;" x1="382" x2="514" y1="549.9219" y2="549.9219"/><line style="stroke:#FFFFFF;stroke-width:1.0;" x1="382" x2="514" y1="566.2188" y2="566.2188"/><line style="stroke:#FFFFFF;stroke-width:1.0;" x1="382" x2="514" y1="582.5156" y2="582.5156"/><line style="stroke:#FFFFFF;stroke-width:1.0;" x1="382" x2="514" y1="598.8125" y2="598.8125"/><line style="stroke:#FFFFFF;stroke-width:1.0;" x1="382" x2="514" y1="615.1094" y2="615.1094"/><line style="stroke:#FFFFFF;stroke-width:1.0;" x1="382" x2="514" y1="631.4063" y2="631.4063"/><line style="stroke:#FFFFFF;stroke-width:1.0;" x1="382" x2="514" y1="647.7031" y2="647.7031"/><line style="stroke:#FFFFFF;stroke-width:1.0;" x1="382" x2="382" y1="533.625" y2="647.7031"/><line style="stroke:#FFFFFF;stroke-width:1.0;" x1="514" x2="514" y1="533.625" y2="647.7031"/><!--SRC=[ZPBDJi904CVlVOgrfv88bL8ktg0IDS6F24GvDVtOI9Esa7Qh46CYdBYHU3Jw3iIa2I6Yhx3xHiuYCGXjPIwxcVd_TlupsJt7jzp8ngX3I2yybEN0k2_SEgGJcL680wlh4-oJWjNrv9vh-2Jot7n8RDSnPKtDN_9KwwmkUqP8S00fNGF2S7mS57gW5UgLzaMhgL-VDa_qUksuTduavGIXCG2vfzVwHC9ziez4-amND6PZkc0JDa5iI6Tio4OqfXzqAW9HxKQ-RGG3oLnT3ZZrHgTiZEWNUwAVe9spaPXx40IqYYseoA4Nq2wMRyzv3rJa3Dg8tp4asCATO-4b-afd044pC1Z3-SvjeWeO_9TNqldgBdmfdTVM-CUCwPMawPMTfbVJkz_iuhwSphV_k0V_LzXTM_hQ-a2OM2jjrPJDMZAePe3bRL3DAaAZdwyC-My0]--></g></svg>